<?xml version="1.0" encoding="utf-8"?>
<!-- Generator: Adobe Illustrator 15.0.0, SVG Export Plug-In . SVG Version: 6.00 Build 0)  -->
<!DOCTYPE svg PUBLIC "-//W3C//DTD SVG 1.1//EN" "http://www.w3.org/Graphics/SVG/1.1/DTD/svg11.dtd">
<svg version="1.1" id="Layer_1" xmlns="http://www.w3.org/2000/svg" xmlns:xlink="http://www.w3.org/1999/xlink" x="0px" y="0px"
	 width="224px" height="88px" viewBox="0 0 224 88" enable-background="new 0 0 224 88" xml:space="preserve">
<g>
	<path fill="#231F20" d="M33.515,47.917H2.501V2.11h9.057v37.208h21.957V47.917z"/>
	<path fill="#231F20" d="M83.722,24.986c0,3.287-0.639,6.383-1.918,9.286c-1.279,2.904-3.025,5.427-5.238,7.568
		c-2.214,2.14-4.792,3.832-7.73,5.072c-2.94,1.242-6.07,1.862-9.391,1.862c-3.323,0-6.462-0.62-9.42-1.862
		c-2.959-1.24-5.545-2.932-7.76-5.072c-2.213-2.142-3.959-4.654-5.239-7.539c-1.279-2.886-1.917-5.991-1.917-9.315
		c0-3.327,0.638-6.44,1.917-9.345c1.28-2.904,3.026-5.428,5.239-7.567c2.215-2.14,4.801-3.822,7.76-5.046
		c2.958-1.223,6.097-1.835,9.42-1.835c3.32,0,6.45,0.612,9.391,1.835c2.938,1.224,5.516,2.915,7.73,5.074
		c2.213,2.159,3.959,4.682,5.238,7.567C83.083,18.555,83.722,21.659,83.722,24.986z M74.836,24.986c0-2.102-0.402-4.081-1.208-5.935
		c-0.805-1.853-1.905-3.476-3.302-4.871c-1.396-1.396-3.035-2.504-4.91-3.327c-1.875-0.82-3.867-1.232-5.973-1.232
		c-2.146,0-4.156,0.412-6.033,1.232c-1.875,0.823-3.512,1.931-4.909,3.327c-1.398,1.395-2.5,3.018-3.303,4.871
		c-0.805,1.854-1.206,3.833-1.206,5.935c0,2.063,0.401,4.032,1.206,5.904c0.803,1.873,1.905,3.506,3.303,4.901
		c1.396,1.395,3.034,2.503,4.909,3.326c1.877,0.821,3.887,1.232,6.033,1.232c2.105,0,4.098-0.411,5.973-1.232
		c1.875-0.822,3.514-1.931,4.91-3.326c1.397-1.396,2.497-3.028,3.302-4.901C74.434,29.018,74.836,27.049,74.836,24.986z"/>
	<path fill="#231F20" d="M138.744,24.986c0,3.287-0.64,6.383-1.92,9.286c-1.278,2.904-3.023,5.427-5.239,7.568
		c-2.213,2.14-4.788,3.832-7.728,5.072c-2.941,1.242-6.072,1.862-9.391,1.862c-3.322,0-6.461-0.62-9.42-1.862
		c-2.959-1.24-5.545-2.932-7.759-5.072c-2.214-2.142-3.96-4.654-5.239-7.539c-1.28-2.886-1.919-5.991-1.919-9.315
		c0-3.327,0.639-6.44,1.919-9.345c1.279-2.904,3.025-5.428,5.239-7.567c2.214-2.14,4.8-3.822,7.759-5.046
		c2.959-1.223,6.098-1.835,9.42-1.835c3.318,0,6.449,0.612,9.391,1.835c2.939,1.224,5.515,2.915,7.728,5.074
		c2.216,2.159,3.961,4.682,5.239,7.567C138.104,18.555,138.744,21.659,138.744,24.986z M129.859,24.986
		c0-2.102-0.403-4.081-1.206-5.935c-0.806-1.853-1.907-3.476-3.303-4.871c-1.399-1.396-3.036-2.504-4.914-3.327
		c-1.874-0.82-3.864-1.232-5.97-1.232c-2.146,0-4.157,0.412-6.031,1.232c-1.877,0.823-3.514,1.931-4.91,3.327
		c-1.399,1.395-2.499,3.018-3.304,4.871c-0.805,1.854-1.206,3.833-1.206,5.935c0,2.063,0.401,4.032,1.206,5.904
		c0.805,1.873,1.905,3.506,3.304,4.901c1.396,1.395,3.033,2.503,4.91,3.326c1.875,0.821,3.886,1.232,6.031,1.232
		c2.105,0,4.096-0.411,5.97-1.232c1.878-0.822,3.515-1.931,4.914-3.326c1.396-1.396,2.497-3.028,3.303-4.901
		C129.456,29.018,129.859,27.049,129.859,24.986z"/>
	<path fill="#231F20" d="M185.682,47.917h-11.579l-18.346-20.294v20.294h-8.884V2.054h8.884v20.466l18.748-20.466h10.547
		l-20.694,22.529L185.682,47.917z"/>
	<path fill="#231F20" d="M221.5,35.879c0,1.719-0.372,3.352-1.118,4.901c-0.746,1.548-1.788,2.914-3.125,4.098
		c-1.34,1.185-2.926,2.131-4.759,2.838c-1.836,0.707-3.859,1.06-6.076,1.06c-1.988,0-3.774-0.114-5.362-0.342
		c-1.586-0.231-3.074-0.595-4.47-1.091c-1.396-0.496-2.733-1.137-4.013-1.922c-1.281-0.78-2.607-1.727-3.983-2.837l6.305-6.363
		c1.836,1.531,3.63,2.609,5.39,3.24c1.757,0.631,3.669,0.947,5.731,0.947c0.841,0,1.636-0.126,2.38-0.374
		c0.745-0.249,1.396-0.581,1.95-1.004c0.553-0.419,0.992-0.917,1.318-1.49c0.323-0.574,0.486-1.203,0.486-1.891
		c0-0.727-0.135-1.377-0.399-1.95c-0.271-0.573-0.747-1.127-1.437-1.663c-0.687-0.535-1.642-1.079-2.866-1.634
		c-1.223-0.554-2.788-1.175-4.699-1.864c-1.683-0.61-3.298-1.308-4.845-2.091c-1.546-0.784-2.905-1.729-4.071-2.838
		c-1.164-1.108-2.101-2.409-2.808-3.898c-0.708-1.491-1.06-3.248-1.06-5.274c0-1.949,0.39-3.746,1.175-5.389
		c0.783-1.644,1.854-3.047,3.21-4.215c1.355-1.166,2.942-2.073,4.759-2.725c1.814-0.649,3.773-0.975,5.876-0.975
		c3.516,0,6.476,0.458,8.887,1.377c2.404,0.917,4.546,2.256,6.422,4.013l-6.194,6.249c-1.146-1.107-2.427-1.958-3.841-2.551
		c-1.414-0.592-3.078-0.889-4.987-0.889c-0.879,0-1.691,0.134-2.436,0.403c-0.747,0.268-1.386,0.62-1.921,1.06
		c-0.538,0.439-0.966,0.955-1.289,1.547c-0.325,0.593-0.488,1.213-0.488,1.862c0,0.727,0.151,1.386,0.457,1.979
		c0.306,0.593,0.822,1.165,1.548,1.719c0.727,0.555,1.693,1.11,2.896,1.663c1.202,0.555,2.703,1.158,4.503,1.807
		c2.293,0.801,4.258,1.682,5.902,2.635c1.643,0.956,2.984,2.007,4.015,3.153c1.033,1.148,1.796,2.438,2.293,3.87
		C221.25,32.466,221.5,34.081,221.5,35.879z"/>
</g>
<g>
	<path fill="#231F20" d="M11.998,72.645c-0.333-0.457-0.783-0.833-1.35-1.124c-0.569-0.293-1.209-0.438-1.918-0.438
		c-0.381,0-0.763,0.052-1.149,0.153c-0.386,0.104-0.739,0.271-1.054,0.5c-0.316,0.228-0.573,0.513-0.77,0.851
		c-0.197,0.338-0.296,0.747-0.296,1.221c0,0.458,0.091,0.839,0.273,1.146c0.182,0.312,0.426,0.568,0.734,0.783
		c0.308,0.212,0.671,0.394,1.089,0.547c0.419,0.146,0.866,0.303,1.339,0.458c0.567,0.175,1.143,0.372,1.728,0.594
		c0.585,0.221,1.114,0.512,1.588,0.876c0.474,0.363,0.859,0.816,1.16,1.361c0.299,0.547,0.449,1.238,0.449,2.073
		c0,0.868-0.162,1.622-0.486,2.262c-0.322,0.64-0.753,1.17-1.291,1.588c-0.538,0.415-1.156,0.729-1.859,0.935
		c-0.702,0.204-1.425,0.307-2.168,0.307c-1.056,0-2.079-0.204-3.065-0.614c-0.988-0.408-1.805-1.019-2.452-1.824l1.823-1.539
		c0.394,0.582,0.924,1.059,1.587,1.42c0.663,0.365,1.381,0.544,2.156,0.544c0.395,0,0.79-0.053,1.184-0.163
		c0.395-0.11,0.754-0.283,1.078-0.521c0.323-0.237,0.589-0.533,0.794-0.889c0.204-0.355,0.307-0.785,0.307-1.292
		c0-0.506-0.106-0.926-0.319-1.269c-0.214-0.337-0.502-0.626-0.865-0.861c-0.363-0.238-0.786-0.439-1.267-0.605
		c-0.48-0.166-0.991-0.335-1.527-0.509c-0.537-0.157-1.065-0.352-1.586-0.581c-0.521-0.23-0.987-0.52-1.398-0.876
		c-0.41-0.354-0.742-0.793-0.994-1.315c-0.253-0.521-0.38-1.168-0.38-1.94c0-0.838,0.169-1.557,0.509-2.156
		c0.339-0.6,0.781-1.097,1.327-1.491c0.543-0.395,1.16-0.684,1.846-0.864c0.688-0.183,1.379-0.272,2.073-0.272
		c0.979,0,1.894,0.174,2.747,0.519c0.853,0.351,1.539,0.814,2.061,1.399L11.998,72.645z"/>
	<path fill="#231F20" d="M52.07,86.312h-2.604l7.272-16.771h2.131l7.2,16.771h-2.652l-1.705-4.121h-7.958L52.07,86.312z
		 M54.581,80.13h6.277l-3.126-7.864L54.581,80.13z"/>
	<path fill="#231F20" d="M104.816,84.227h7.484v2.085h-9.831V69.541h2.346V84.227z"/>
	<path fill="#231F20" d="M165.021,77.902c0,1.295-0.225,2.484-0.676,3.564c-0.447,1.082-1.07,2.013-1.857,2.793
		c-0.79,0.783-1.727,1.391-2.818,1.827c-1.091,0.434-2.274,0.649-3.552,0.649c-1.278,0-2.459-0.216-3.541-0.649
		c-1.083-0.437-2.02-1.044-2.808-1.827c-0.789-0.78-1.405-1.711-1.846-2.793c-0.445-1.08-0.666-2.27-0.666-3.564
		c0-1.311,0.221-2.506,0.666-3.588c0.44-1.08,1.057-2.005,1.846-2.771c0.788-0.767,1.725-1.361,2.808-1.788
		c1.082-0.426,2.263-0.638,3.541-0.638c1.277,0,2.461,0.212,3.552,0.638c1.092,0.427,2.028,1.021,2.818,1.788
		c0.787,0.767,1.41,1.691,1.857,2.771C164.797,75.396,165.021,76.592,165.021,77.902z M162.488,77.902
		c0-0.915-0.149-1.779-0.449-2.594c-0.302-0.812-0.727-1.527-1.277-2.144c-0.558-0.614-1.223-1.101-2.007-1.456
		c-0.778-0.356-1.659-0.534-2.637-0.534c-0.966,0-1.836,0.178-2.618,0.534c-0.783,0.355-1.444,0.842-1.99,1.456
		c-0.546,0.616-0.967,1.332-1.265,2.144c-0.302,0.814-0.453,1.679-0.453,2.594c0,0.933,0.151,1.81,0.453,2.63
		c0.298,0.82,0.725,1.538,1.275,2.145c0.554,0.607,1.217,1.083,1.991,1.432c0.773,0.347,1.641,0.521,2.606,0.521
		c0.962,0,1.838-0.174,2.625-0.521c0.791-0.349,1.461-0.824,2.019-1.432c0.551-0.606,0.976-1.324,1.277-2.145
		C162.339,79.712,162.488,78.835,162.488,77.902z"/>
	<path fill="#231F20" d="M214.284,82.947h0.05V69.541h2.344v16.771h-2.959l-8.859-13.69h-0.049v13.69h-2.344V69.541h3.054
		L214.284,82.947z"/>
</g>
</svg>
