<?xml version="1.0" encoding="utf-8"?>
<!-- Generator: Adobe Illustrator 15.0.0, SVG Export Plug-In . SVG Version: 6.00 Build 0)  -->
<!DOCTYPE svg PUBLIC "-//W3C//DTD SVG 1.1//EN" "http://www.w3.org/Graphics/SVG/1.1/DTD/svg11.dtd">
<svg version="1.1" id="Layer_1" xmlns="http://www.w3.org/2000/svg" xmlns:xlink="http://www.w3.org/1999/xlink" x="0px" y="0px"
	 width="627px" height="168px" viewBox="85.5 105.5 627 168" enable-background="new 85.5 105.5 627 168" xml:space="preserve">
<path display="none" fill="none" stroke="#000000" stroke-width="0.1" stroke-miterlimit="2.613" d="M664.999,248.504h4.701v-1.072
	h-10.567v1.072h4.709v17.075h1.157V248.504L664.999,248.504z M644.475,255.874v-7.37h0.746h1.087c0.396,0,0.771,0.057,1.124,0.107
	c0.354,0.043,0.724,0.152,1.054,0.302c0.417,0.203,0.774,0.489,1.064,0.81c0.275,0.336,0.5,0.717,0.623,1.152
	c0.167,0.424,0.203,0.854,0.203,1.301c0,0.395-0.021,0.729-0.12,1.096c-0.083,0.334-0.235,0.686-0.416,0.981
	c-0.182,0.306-0.428,0.595-0.718,0.798c-0.297,0.275-0.624,0.442-0.968,0.584c-0.37,0.123-0.724,0.206-1.077,0.235
	c-0.373,0.004-0.771,0.04-1.124,0.004H644.475z M646.345,256.979c0.761,0.026,1.439-0.063,2.089-0.265
	c0.635-0.21,1.182-0.497,1.653-0.874c0.456-0.424,0.83-0.914,1.072-1.512c0.269-0.598,0.396-1.286,0.396-2.085
	c0-0.515-0.047-1.021-0.185-1.493c-0.127-0.473-0.31-0.943-0.595-1.326c-0.275-0.398-0.627-0.783-1.06-1.082
	c-0.398-0.293-0.838-0.488-1.283-0.634c-0.452-0.127-0.929-0.229-1.393-0.25c-0.489-0.022-0.972-0.058-1.451-0.028h-2.28v18.148
	h1.165v-8.6h0.564l5.946,8.6h1.315L646.345,256.979z M624.725,248.264c0.896,0,1.771,0.131,2.601,0.449
	c0.81,0.266,1.569,0.66,2.268,1.168c0.685,0.497,1.286,1.08,1.771,1.807c0.521,0.67,0.914,1.432,1.188,2.232
	c0.306,0.833,0.436,1.691,0.436,2.585c0,0.896-0.13,1.748-0.436,2.585c-0.274,0.79-0.667,1.544-1.188,2.229
	c-0.485,0.693-1.088,1.295-1.771,1.82c-0.697,0.498-1.458,0.889-2.268,1.187c-0.829,0.258-1.703,0.405-2.601,0.438
	c-0.913-0.033-1.771-0.182-2.584-0.438c-0.842-0.291-1.592-0.688-2.263-1.187c-0.714-0.488-1.313-1.092-1.828-1.82
	c-0.484-0.686-0.88-1.412-1.159-2.229c-0.282-0.837-0.428-1.689-0.428-2.585c0-0.894,0.146-1.752,0.428-2.585
	c0.279-0.802,0.675-1.563,1.159-2.232c0.516-0.727,1.114-1.31,1.828-1.807c0.671-0.508,1.421-0.902,2.263-1.168
	C622.952,248.395,623.813,248.264,624.725,248.264z M624.725,247.198c-1.015,0-2.016,0.13-2.937,0.456
	c-0.946,0.32-1.794,0.769-2.588,1.342c-0.798,0.58-1.47,1.255-2.052,2.009c-0.573,0.783-1.038,1.656-1.36,2.577
	c-0.305,0.914-0.472,1.9-0.472,2.923c0,1.033,0.167,1.998,0.472,2.919c0.322,0.942,0.798,1.805,1.375,2.574
	c0.583,0.754,1.269,1.436,2.037,2.029c0.802,0.556,1.655,0.994,2.588,1.31c0.95,0.312,1.922,0.464,2.937,0.464
	c1.034,0,2.018-0.152,2.941-0.464c0.921-0.315,1.806-0.754,2.588-1.31c0.783-0.594,1.469-1.275,2.049-2.029
	c0.576-0.77,1.041-1.632,1.354-2.574c0.333-0.921,0.484-1.886,0.484-2.919c0-1.022-0.151-2.009-0.484-2.923
	c-0.313-0.921-0.776-1.794-1.354-2.577c-0.58-0.754-1.266-1.429-2.049-2.009c-0.782-0.573-1.667-1.021-2.588-1.342
	C626.741,247.328,625.759,247.198,624.725,247.198z M606.677,248.504v-1.072h-7.323v18.147h1.148v-9.39h5.994v-1.074h-5.994v-6.611
	H606.677z M589.729,265.579h1.112l-3.905-18.751l-6.695,16.529l-6.678-16.529l-3.898,18.751h1.121l3.096-15.011h0.04l6.319,15.627
	l6.334-15.627h0.058L589.729,265.579z M552.815,248.264c0.897,0,1.758,0.131,2.585,0.449c0.815,0.266,1.575,0.66,2.259,1.168
	c0.696,0.497,1.294,1.08,1.806,1.807c0.519,0.67,0.88,1.432,1.192,2.232c0.269,0.833,0.413,1.691,0.413,2.585
	c0,0.896-0.146,1.748-0.413,2.585c-0.313,0.79-0.675,1.544-1.192,2.229c-0.512,0.693-1.108,1.295-1.806,1.82
	c-0.684,0.498-1.442,0.889-2.259,1.187c-0.827,0.258-1.688,0.405-2.585,0.438c-0.907-0.033-1.773-0.182-2.614-0.438
	c-0.813-0.291-1.577-0.688-2.256-1.187c-0.691-0.488-1.289-1.092-1.81-1.82c-0.481-0.686-0.892-1.412-1.178-2.229
	c-0.276-0.837-0.392-1.689-0.421-2.585c0.029-0.894,0.145-1.752,0.421-2.585c0.286-0.802,0.695-1.563,1.178-2.232
	c0.521-0.727,1.117-1.31,1.81-1.807c0.679-0.508,1.443-0.902,2.256-1.168C551.042,248.395,551.908,248.264,552.815,248.264z
	 M552.815,247.198c-1.037,0-2.031,0.13-2.947,0.456c-0.943,0.32-1.807,0.769-2.589,1.342c-0.803,0.58-1.474,1.255-2.057,2.009
	c-0.584,0.783-1.029,1.656-1.338,2.577c-0.341,0.914-0.489,1.9-0.489,2.923c0,1.033,0.148,1.998,0.489,2.919
	c0.309,0.942,0.754,1.805,1.338,2.574c0.583,0.754,1.276,1.436,2.069,2.029c0.77,0.556,1.632,0.994,2.575,1.31
	c0.938,0.312,1.91,0.464,2.947,0.464c1.011,0,2-0.152,2.934-0.464c0.941-0.315,1.813-0.754,2.574-1.31
	c0.797-0.594,1.472-1.275,2.068-2.029c0.584-0.77,1.021-1.632,1.347-2.574c0.325-0.921,0.491-1.886,0.491-2.919
	c0-1.022-0.166-2.009-0.491-2.923c-0.326-0.921-0.763-1.794-1.347-2.577c-0.598-0.754-1.271-1.429-2.068-2.009
	c-0.763-0.573-1.633-1.021-2.574-1.342C554.816,247.328,553.826,247.198,552.815,247.198z M534.737,249.547
	c-0.539-0.507-1.127-0.936-1.767-1.283c-0.667-0.341-1.354-0.609-2.064-0.805c-0.711-0.167-1.443-0.261-2.184-0.261
	c-1.052,0-2.026,0.13-2.956,0.456c-0.948,0.32-1.822,0.769-2.612,1.342c-0.787,0.551-1.474,1.247-2.063,2.009
	c-0.587,0.783-1.04,1.656-1.366,2.577c-0.338,0.929-0.481,1.911-0.481,2.951c0,1.005,0.159,1.99,0.481,2.912
	c0.342,0.936,0.779,1.783,1.39,2.553c0.583,0.775,1.269,1.436,2.069,2.029c0.799,0.556,1.663,0.994,2.584,1.31
	c0.93,0.312,1.904,0.464,2.938,0.464c1.12,0,2.201-0.182,3.22-0.568c1.012-0.385,1.961-0.969,2.813-1.668v-1.565
	c-0.318,0.388-0.735,0.754-1.21,1.095c-0.461,0.342-0.99,0.631-1.533,0.862c-0.566,0.255-1.132,0.461-1.684,0.591
	c-0.58,0.12-1.119,0.219-1.668,0.219c-0.699-0.033-1.406-0.128-2.136-0.349c-0.685-0.214-1.346-0.519-1.979-0.882
	c-0.612-0.395-1.193-0.805-1.7-1.305c-0.505-0.481-0.943-1.041-1.313-1.633c-0.349-0.578-0.631-1.231-0.818-1.91
	c-0.207-0.678-0.307-1.338-0.307-2.063c0.009-0.881,0.144-1.747,0.43-2.581c0.271-0.826,0.682-1.603,1.168-2.284
	c0.518-0.686,1.13-1.318,1.806-1.813c0.691-0.536,1.428-0.922,2.262-1.233c0.843-0.29,1.688-0.448,2.59-0.448
	c0.587,0,1.152,0.059,1.719,0.202c0.572,0.146,1.111,0.334,1.652,0.599c0.552,0.266,1.052,0.529,1.513,0.902
	c0.46,0.355,0.854,0.732,1.21,1.189v-1.611H534.737z M502.539,249.855c-0.29-0.525-0.688-0.998-1.132-1.359
	c-0.456-0.377-0.964-0.671-1.521-0.898c-0.581-0.203-1.171-0.306-1.784-0.306c-0.662,0-1.318,0.108-1.859,0.313
	c-0.583,0.25-1.076,0.554-1.482,0.963c-0.414,0.429-0.735,0.898-0.965,1.461c-0.225,0.576-0.345,1.164-0.345,1.861
	c0,0.717,0.171,1.352,0.512,1.873c0.313,0.565,0.77,1.012,1.394,1.389l3.263,1.716c0.319,0.147,0.648,0.33,0.981,0.489
	c0.323,0.182,0.664,0.373,0.99,0.556c0.313,0.213,0.595,0.438,0.833,0.685c0.262,0.271,0.474,0.551,0.624,0.871
	c0.152,0.329,0.218,0.688,0.218,1.096c0,0.611-0.124,1.186-0.361,1.67c-0.219,0.541-0.544,0.973-0.95,1.371
	c-0.457,0.396-0.899,0.707-1.462,0.941c-0.524,0.186-1.103,0.303-1.7,0.303c-0.725,0-1.37-0.136-1.95-0.41
	c-0.54-0.266-1.036-0.672-1.421-1.156c-0.428-0.486-0.762-1.07-1.016-1.719l-1.016,0.484c0.29,0.776,0.699,1.434,1.196,2.034
	c0.529,0.569,1.131,1.041,1.827,1.378c0.71,0.301,1.472,0.475,2.342,0.475c0.736,0,1.43-0.138,2.133-0.408
	c0.656-0.25,1.27-0.635,1.798-1.088c0.536-0.489,0.957-1.056,1.27-1.687c0.319-0.621,0.457-1.334,0.479-2.118
	c0-0.783-0.174-1.486-0.531-2.066c-0.334-0.594-0.854-1.103-1.541-1.515l-3.48-1.827c-0.362-0.152-0.747-0.349-1.132-0.556
	c-0.395-0.174-0.707-0.417-1.058-0.685c-0.313-0.248-0.563-0.563-0.776-0.914c-0.196-0.334-0.282-0.758-0.282-1.24
	c0-0.471,0.064-0.898,0.238-1.326c0.182-0.421,0.409-0.791,0.739-1.104c0.291-0.336,0.652-0.576,1.059-0.762
	c0.421-0.174,0.871-0.254,1.379-0.254c0.559,0,1.065,0.08,1.522,0.254c0.448,0.168,0.862,0.426,1.226,0.762
	c0.341,0.313,0.648,0.683,0.921,1.127L502.539,249.855z M483.052,247.531h-1.143v18.16h1.143V247.531z M463.064,247.531h-1.153
	v15.841l-15.235-16.08v18.399h1.153v-15.607l15.235,16.206V247.531z M428.063,248.387c0.921,0,1.795,0.117,2.597,0.393
	c0.827,0.314,1.588,0.688,2.272,1.197c0.679,0.528,1.294,1.111,1.787,1.782c0.519,0.714,0.914,1.45,1.196,2.284
	c0.279,0.809,0.417,1.66,0.417,2.581c0,0.892-0.138,1.756-0.417,2.55c-0.282,0.846-0.679,1.577-1.196,2.295
	c-0.493,0.662-1.108,1.27-1.787,1.754c-0.686,0.516-1.445,0.906-2.272,1.215c-0.802,0.262-1.676,0.41-2.597,0.41
	c-0.898,0-1.752-0.135-2.597-0.41c-0.818-0.278-1.559-0.67-2.237-1.186c-0.705-0.5-1.289-1.116-1.814-1.783
	c-0.512-0.718-0.892-1.449-1.175-2.279c-0.272-0.81-0.421-1.674-0.421-2.564c0-0.921,0.147-1.771,0.421-2.581
	c0.283-0.834,0.663-1.569,1.175-2.284c0.525-0.671,1.109-1.254,1.814-1.783c0.68-0.509,1.419-0.881,2.237-1.197
	C426.311,248.504,427.163,248.387,428.063,248.387z M428.063,247.292c-1.029,0-1.993,0.167-2.938,0.472
	c-0.941,0.305-1.801,0.74-2.588,1.33c-0.791,0.584-1.457,1.256-2.045,2.047c-0.584,0.771-1.017,1.604-1.356,2.519
	c-0.309,0.965-0.453,1.911-0.479,2.966c0.024,1.012,0.17,2.009,0.481,2.923c0.337,0.913,0.782,1.769,1.367,2.577
	c0.573,0.751,1.271,1.439,2.06,1.991c0.771,0.583,1.617,1.04,2.566,1.345c0.937,0.301,1.899,0.475,2.929,0.475
	c1.038,0,2.023-0.174,2.968-0.475c0.913-0.305,1.79-0.762,2.573-1.345c0.758-0.552,1.457-1.24,2.061-1.991
	c0.571-0.809,1.015-1.664,1.341-2.577c0.319-0.914,0.501-1.911,0.501-2.923c0-1.055-0.182-2.001-0.501-2.966
	c-0.326-0.914-0.77-1.747-1.341-2.519c-0.604-0.791-1.303-1.463-2.061-2.047c-0.783-0.59-1.66-1.025-2.573-1.33
	C430.085,247.459,429.1,247.292,428.063,247.292z M409.499,247.531h-1.175v18.16h1.175V247.531z M385.886,255.227v-7.694h-1.155
	v18.161h1.155v-9.373h11.04v9.373h1.171v-18.161h-1.171v7.694H385.886z M374.514,249.855c-0.309-0.525-0.684-0.998-1.126-1.359
	c-0.453-0.377-0.972-0.671-1.533-0.898c-0.579-0.203-1.162-0.306-1.768-0.306c-0.687,0-1.335,0.108-1.893,0.313
	c-0.567,0.25-1.059,0.554-1.477,0.963c-0.404,0.429-0.716,0.898-0.943,1.461c-0.234,0.576-0.343,1.164-0.343,1.861
	c0,0.717,0.16,1.352,0.488,1.873c0.337,0.565,0.775,1.012,1.396,1.389l3.27,1.716c0.319,0.147,0.631,0.33,0.976,0.489
	c0.338,0.182,0.672,0.373,0.988,0.556c0.319,0.213,0.598,0.438,0.851,0.685c0.272,0.271,0.453,0.551,0.605,0.871
	c0.163,0.329,0.238,0.688,0.238,1.096c0,0.611-0.114,1.186-0.361,1.67c-0.209,0.541-0.567,0.973-0.968,1.371
	c-0.415,0.396-0.899,0.707-1.448,0.941c-0.523,0.186-1.099,0.303-1.7,0.303c-0.735,0-1.378-0.136-1.927-0.41
	c-0.583-0.266-1.057-0.672-1.46-1.156c-0.408-0.486-0.752-1.07-1.002-1.719l-1.004,0.484c0.263,0.776,0.685,1.434,1.206,2.034
	c0.517,0.569,1.109,1.041,1.816,1.378c0.716,0.301,1.47,0.475,2.314,0.475c0.766,0,1.459-0.138,2.147-0.408
	c0.672-0.25,1.271-0.635,1.816-1.088c0.518-0.489,0.946-1.056,1.25-1.687c0.333-0.621,0.486-1.334,0.486-2.118
	c0-0.783-0.188-1.486-0.531-2.066c-0.344-0.594-0.872-1.103-1.548-1.515l-3.482-1.827c-0.375-0.152-0.738-0.349-1.117-0.556
	c-0.387-0.174-0.74-0.417-1.044-0.685c-0.333-0.248-0.597-0.563-0.801-0.914c-0.197-0.334-0.287-0.758-0.287-1.24
	c0-0.471,0.075-0.898,0.234-1.326c0.184-0.421,0.424-0.791,0.732-1.104c0.319-0.336,0.66-0.576,1.077-0.762
	c0.43-0.174,0.879-0.254,1.358-0.254c0.587,0,1.095,0.08,1.555,0.254c0.424,0.168,0.847,0.426,1.222,0.762
	c0.334,0.313,0.662,0.683,0.917,1.127L374.514,249.855z M352.809,258.641h-7.103l3.575-8.763L352.809,258.641z M353.262,259.698
	l2.435,5.993h1.169l-7.585-18.758l-7.614,18.758h1.169l2.44-5.993H353.262z M335.216,248.611v-1.08h-7.325v18.16h1.166v-9.4h5.999
	v-1.096h-5.999v-6.584H335.216L335.216,248.611z"/>
<path d="M664.999,248.504h4.701v-1.072h-10.567v1.072h4.709v17.075h1.157V248.504L664.999,248.504z M644.475,255.874v-7.37h0.746
	h1.087c0.396,0,0.771,0.057,1.124,0.107c0.354,0.043,0.724,0.152,1.054,0.302c0.417,0.203,0.774,0.489,1.064,0.81
	c0.275,0.336,0.5,0.717,0.623,1.152c0.167,0.424,0.203,0.854,0.203,1.301c0,0.395-0.021,0.729-0.12,1.096
	c-0.083,0.334-0.235,0.686-0.416,0.981c-0.182,0.306-0.428,0.595-0.718,0.798c-0.297,0.275-0.624,0.442-0.968,0.584
	c-0.37,0.123-0.724,0.206-1.077,0.235c-0.373,0.004-0.771,0.04-1.124,0.004H644.475z M646.345,256.979
	c0.761,0.026,1.439-0.063,2.089-0.265c0.635-0.21,1.182-0.497,1.653-0.874c0.456-0.424,0.83-0.914,1.072-1.512
	c0.269-0.598,0.396-1.286,0.396-2.085c0-0.515-0.047-1.021-0.185-1.493c-0.127-0.473-0.31-0.943-0.595-1.326
	c-0.275-0.398-0.627-0.783-1.06-1.082c-0.398-0.293-0.838-0.488-1.283-0.634c-0.452-0.127-0.929-0.229-1.393-0.25
	c-0.489-0.022-0.972-0.058-1.451-0.028h-2.28v18.148h1.165v-8.6h0.564l5.946,8.6h1.315L646.345,256.979z M624.725,248.264
	c0.896,0,1.771,0.131,2.601,0.449c0.81,0.266,1.569,0.66,2.268,1.168c0.685,0.497,1.286,1.08,1.771,1.807
	c0.521,0.67,0.914,1.432,1.188,2.232c0.306,0.833,0.436,1.691,0.436,2.585c0,0.896-0.13,1.748-0.436,2.585
	c-0.274,0.79-0.667,1.544-1.188,2.229c-0.485,0.693-1.088,1.295-1.771,1.82c-0.697,0.498-1.458,0.889-2.268,1.187
	c-0.829,0.258-1.703,0.405-2.601,0.438c-0.913-0.033-1.771-0.182-2.584-0.438c-0.842-0.291-1.592-0.688-2.263-1.187
	c-0.714-0.488-1.313-1.092-1.828-1.82c-0.484-0.686-0.88-1.412-1.159-2.229c-0.282-0.837-0.428-1.689-0.428-2.585
	c0-0.894,0.146-1.752,0.428-2.585c0.279-0.802,0.675-1.563,1.159-2.232c0.516-0.727,1.114-1.31,1.828-1.807
	c0.671-0.508,1.421-0.902,2.263-1.168C622.952,248.395,623.813,248.264,624.725,248.264z M624.725,247.198
	c-1.015,0-2.016,0.13-2.937,0.456c-0.946,0.32-1.794,0.769-2.588,1.342c-0.798,0.58-1.47,1.255-2.052,2.009
	c-0.573,0.783-1.038,1.656-1.36,2.577c-0.305,0.914-0.472,1.9-0.472,2.923c0,1.033,0.167,1.998,0.472,2.919
	c0.322,0.942,0.798,1.805,1.375,2.574c0.583,0.754,1.269,1.436,2.037,2.029c0.802,0.556,1.655,0.994,2.588,1.31
	c0.95,0.312,1.922,0.464,2.937,0.464c1.034,0,2.018-0.152,2.941-0.464c0.921-0.315,1.806-0.754,2.588-1.31
	c0.783-0.594,1.469-1.275,2.049-2.029c0.576-0.77,1.041-1.632,1.354-2.574c0.333-0.921,0.484-1.886,0.484-2.919
	c0-1.022-0.151-2.009-0.484-2.923c-0.313-0.921-0.776-1.794-1.354-2.577c-0.58-0.754-1.266-1.429-2.049-2.009
	c-0.782-0.573-1.667-1.021-2.588-1.342C626.741,247.328,625.759,247.198,624.725,247.198z M606.677,248.504v-1.072h-7.323v18.147
	h1.148v-9.39h5.994v-1.074h-5.994v-6.611H606.677z M589.729,265.579h1.112l-3.905-18.751l-6.695,16.529l-6.678-16.529l-3.898,18.751
	h1.121l3.096-15.011h0.04l6.319,15.627l6.334-15.627h0.058L589.729,265.579z M552.815,248.264c0.897,0,1.758,0.131,2.585,0.449
	c0.815,0.266,1.575,0.66,2.259,1.168c0.696,0.497,1.294,1.08,1.806,1.807c0.519,0.67,0.88,1.432,1.192,2.232
	c0.269,0.833,0.413,1.691,0.413,2.585c0,0.896-0.146,1.748-0.413,2.585c-0.313,0.79-0.675,1.544-1.192,2.229
	c-0.512,0.693-1.108,1.295-1.806,1.82c-0.684,0.498-1.442,0.889-2.259,1.187c-0.827,0.258-1.688,0.405-2.585,0.438
	c-0.907-0.033-1.773-0.182-2.614-0.438c-0.813-0.291-1.577-0.688-2.256-1.187c-0.691-0.488-1.289-1.092-1.81-1.82
	c-0.481-0.686-0.892-1.412-1.178-2.229c-0.276-0.837-0.392-1.689-0.421-2.585c0.029-0.894,0.145-1.752,0.421-2.585
	c0.286-0.802,0.695-1.563,1.178-2.232c0.521-0.727,1.117-1.31,1.81-1.807c0.679-0.508,1.443-0.902,2.256-1.168
	C551.042,248.395,551.908,248.264,552.815,248.264z M552.815,247.198c-1.037,0-2.031,0.13-2.947,0.456
	c-0.943,0.32-1.807,0.769-2.589,1.342c-0.803,0.58-1.474,1.255-2.057,2.009c-0.584,0.783-1.029,1.656-1.338,2.577
	c-0.341,0.914-0.489,1.9-0.489,2.923c0,1.033,0.148,1.998,0.489,2.919c0.309,0.942,0.754,1.805,1.338,2.574
	c0.583,0.754,1.276,1.436,2.069,2.029c0.77,0.556,1.632,0.994,2.575,1.31c0.938,0.312,1.91,0.464,2.947,0.464
	c1.011,0,2-0.152,2.934-0.464c0.941-0.315,1.813-0.754,2.574-1.31c0.797-0.594,1.472-1.275,2.068-2.029
	c0.584-0.77,1.021-1.632,1.347-2.574c0.325-0.921,0.491-1.886,0.491-2.919c0-1.022-0.166-2.009-0.491-2.923
	c-0.326-0.921-0.763-1.794-1.347-2.577c-0.598-0.754-1.271-1.429-2.068-2.009c-0.763-0.573-1.633-1.021-2.574-1.342
	C554.816,247.328,553.826,247.198,552.815,247.198z M534.737,249.547c-0.539-0.507-1.127-0.936-1.767-1.283
	c-0.667-0.341-1.354-0.609-2.064-0.805c-0.711-0.167-1.443-0.261-2.184-0.261c-1.052,0-2.026,0.13-2.956,0.456
	c-0.948,0.32-1.822,0.769-2.612,1.342c-0.787,0.551-1.474,1.247-2.063,2.009c-0.587,0.783-1.04,1.656-1.366,2.577
	c-0.338,0.929-0.481,1.911-0.481,2.951c0,1.005,0.159,1.99,0.481,2.912c0.342,0.936,0.779,1.783,1.39,2.553
	c0.583,0.775,1.269,1.436,2.069,2.029c0.799,0.556,1.663,0.994,2.584,1.31c0.93,0.312,1.904,0.464,2.938,0.464
	c1.12,0,2.201-0.182,3.22-0.568c1.012-0.385,1.961-0.969,2.813-1.668v-1.565c-0.318,0.388-0.735,0.754-1.21,1.095
	c-0.461,0.342-0.99,0.631-1.533,0.862c-0.566,0.255-1.132,0.461-1.684,0.591c-0.58,0.12-1.119,0.219-1.668,0.219
	c-0.699-0.033-1.406-0.128-2.136-0.349c-0.685-0.214-1.346-0.519-1.979-0.882c-0.612-0.395-1.193-0.805-1.7-1.305
	c-0.505-0.481-0.943-1.041-1.313-1.633c-0.349-0.578-0.631-1.231-0.818-1.91c-0.207-0.678-0.307-1.338-0.307-2.063
	c0.009-0.881,0.144-1.747,0.43-2.581c0.271-0.826,0.682-1.603,1.168-2.284c0.518-0.686,1.13-1.318,1.806-1.813
	c0.691-0.536,1.428-0.922,2.262-1.233c0.843-0.29,1.688-0.448,2.59-0.448c0.587,0,1.152,0.059,1.719,0.202
	c0.572,0.146,1.111,0.334,1.652,0.599c0.552,0.266,1.052,0.529,1.513,0.902c0.46,0.355,0.854,0.732,1.21,1.189v-1.611H534.737z
	 M502.539,249.855c-0.29-0.525-0.688-0.998-1.132-1.359c-0.456-0.377-0.964-0.671-1.521-0.898c-0.581-0.203-1.171-0.306-1.784-0.306
	c-0.662,0-1.318,0.108-1.859,0.313c-0.583,0.25-1.076,0.554-1.482,0.963c-0.414,0.429-0.735,0.898-0.965,1.461
	c-0.225,0.576-0.345,1.164-0.345,1.861c0,0.717,0.171,1.352,0.512,1.873c0.313,0.565,0.77,1.012,1.394,1.389l3.263,1.716
	c0.319,0.147,0.648,0.33,0.981,0.489c0.323,0.182,0.664,0.373,0.99,0.556c0.313,0.213,0.595,0.438,0.833,0.685
	c0.262,0.271,0.474,0.551,0.624,0.871c0.152,0.329,0.218,0.688,0.218,1.096c0,0.611-0.124,1.186-0.361,1.67
	c-0.219,0.541-0.544,0.973-0.95,1.371c-0.457,0.396-0.899,0.707-1.462,0.941c-0.524,0.186-1.103,0.303-1.7,0.303
	c-0.725,0-1.37-0.136-1.95-0.41c-0.54-0.266-1.036-0.672-1.421-1.156c-0.428-0.486-0.762-1.07-1.016-1.719l-1.016,0.484
	c0.29,0.776,0.699,1.434,1.196,2.034c0.529,0.569,1.131,1.041,1.827,1.378c0.71,0.301,1.472,0.475,2.342,0.475
	c0.736,0,1.43-0.138,2.133-0.408c0.656-0.25,1.27-0.635,1.798-1.088c0.536-0.489,0.957-1.056,1.27-1.687
	c0.319-0.621,0.457-1.334,0.479-2.118c0-0.783-0.174-1.486-0.531-2.066c-0.334-0.594-0.854-1.103-1.541-1.515l-3.48-1.827
	c-0.362-0.152-0.747-0.349-1.132-0.556c-0.395-0.174-0.707-0.417-1.058-0.685c-0.313-0.248-0.563-0.563-0.776-0.914
	c-0.196-0.334-0.282-0.758-0.282-1.24c0-0.471,0.064-0.898,0.238-1.326c0.182-0.421,0.409-0.791,0.739-1.104
	c0.291-0.336,0.652-0.576,1.059-0.762c0.421-0.174,0.871-0.254,1.379-0.254c0.559,0,1.065,0.08,1.522,0.254
	c0.448,0.168,0.862,0.426,1.226,0.762c0.341,0.313,0.648,0.683,0.921,1.127L502.539,249.855z M483.052,247.531h-1.143v18.16h1.143
	V247.531z M463.064,247.531h-1.153v15.841l-15.235-16.08v18.399h1.153v-15.607l15.235,16.206V247.531z M428.063,248.387
	c0.921,0,1.795,0.117,2.597,0.393c0.827,0.314,1.588,0.688,2.272,1.197c0.679,0.528,1.294,1.111,1.787,1.782
	c0.519,0.714,0.914,1.45,1.196,2.284c0.279,0.809,0.417,1.66,0.417,2.581c0,0.892-0.138,1.756-0.417,2.55
	c-0.282,0.846-0.679,1.577-1.196,2.295c-0.493,0.662-1.108,1.27-1.787,1.754c-0.686,0.516-1.445,0.906-2.272,1.215
	c-0.802,0.262-1.676,0.41-2.597,0.41c-0.898,0-1.752-0.135-2.597-0.41c-0.818-0.278-1.559-0.67-2.237-1.186
	c-0.705-0.5-1.289-1.116-1.814-1.783c-0.512-0.718-0.892-1.449-1.175-2.279c-0.272-0.81-0.421-1.674-0.421-2.564
	c0-0.921,0.147-1.771,0.421-2.581c0.283-0.834,0.663-1.569,1.175-2.284c0.525-0.671,1.109-1.254,1.814-1.783
	c0.68-0.509,1.419-0.881,2.237-1.197C426.311,248.504,427.163,248.387,428.063,248.387z M428.063,247.292
	c-1.029,0-1.993,0.167-2.938,0.472c-0.941,0.305-1.801,0.74-2.588,1.33c-0.791,0.584-1.457,1.256-2.045,2.047
	c-0.584,0.771-1.017,1.604-1.356,2.519c-0.309,0.965-0.453,1.911-0.479,2.966c0.024,1.012,0.17,2.009,0.481,2.923
	c0.337,0.913,0.782,1.769,1.367,2.577c0.573,0.751,1.271,1.439,2.06,1.991c0.771,0.583,1.617,1.04,2.566,1.345
	c0.937,0.301,1.899,0.475,2.929,0.475c1.038,0,2.023-0.174,2.968-0.475c0.913-0.305,1.79-0.762,2.573-1.345
	c0.758-0.552,1.457-1.24,2.061-1.991c0.571-0.809,1.015-1.664,1.341-2.577c0.319-0.914,0.501-1.911,0.501-2.923
	c0-1.055-0.182-2.001-0.501-2.966c-0.326-0.914-0.77-1.747-1.341-2.519c-0.604-0.791-1.303-1.463-2.061-2.047
	c-0.783-0.59-1.66-1.025-2.573-1.33C430.085,247.459,429.1,247.292,428.063,247.292z M409.499,247.531h-1.175v18.16h1.175V247.531z
	 M385.886,255.227v-7.694h-1.155v18.161h1.155v-9.373h11.04v9.373h1.171v-18.161h-1.171v7.694H385.886z M374.514,249.855
	c-0.309-0.525-0.684-0.998-1.126-1.359c-0.453-0.377-0.972-0.671-1.533-0.898c-0.579-0.203-1.162-0.306-1.768-0.306
	c-0.687,0-1.335,0.108-1.893,0.313c-0.567,0.25-1.059,0.554-1.477,0.963c-0.404,0.429-0.716,0.898-0.943,1.461
	c-0.234,0.576-0.343,1.164-0.343,1.861c0,0.717,0.16,1.352,0.488,1.873c0.337,0.565,0.775,1.012,1.396,1.389l3.27,1.716
	c0.319,0.147,0.631,0.33,0.976,0.489c0.338,0.182,0.672,0.373,0.988,0.556c0.319,0.213,0.598,0.438,0.851,0.685
	c0.272,0.271,0.453,0.551,0.605,0.871c0.163,0.329,0.238,0.688,0.238,1.096c0,0.611-0.114,1.186-0.361,1.67
	c-0.209,0.541-0.567,0.973-0.968,1.371c-0.415,0.396-0.899,0.707-1.448,0.941c-0.523,0.186-1.099,0.303-1.7,0.303
	c-0.735,0-1.378-0.136-1.927-0.41c-0.583-0.266-1.057-0.672-1.46-1.156c-0.408-0.486-0.752-1.07-1.002-1.719l-1.004,0.484
	c0.263,0.776,0.685,1.434,1.206,2.034c0.517,0.569,1.109,1.041,1.816,1.378c0.716,0.301,1.47,0.475,2.314,0.475
	c0.766,0,1.459-0.138,2.147-0.408c0.672-0.25,1.271-0.635,1.816-1.088c0.518-0.489,0.946-1.056,1.25-1.687
	c0.333-0.621,0.486-1.334,0.486-2.118c0-0.783-0.188-1.486-0.531-2.066c-0.344-0.594-0.872-1.103-1.548-1.515l-3.482-1.827
	c-0.375-0.152-0.738-0.349-1.117-0.556c-0.387-0.174-0.74-0.417-1.044-0.685c-0.333-0.248-0.597-0.563-0.801-0.914
	c-0.197-0.334-0.287-0.758-0.287-1.24c0-0.471,0.075-0.898,0.234-1.326c0.184-0.421,0.424-0.791,0.732-1.104
	c0.319-0.336,0.66-0.576,1.077-0.762c0.43-0.174,0.879-0.254,1.358-0.254c0.587,0,1.095,0.08,1.555,0.254
	c0.424,0.168,0.847,0.426,1.222,0.762c0.334,0.313,0.662,0.683,0.917,1.127L374.514,249.855z M352.809,258.641h-7.103l3.575-8.763
	L352.809,258.641z M353.262,259.698l2.435,5.993h1.169l-7.585-18.758l-7.614,18.758h1.169l2.44-5.993H353.262z M335.216,248.611
	v-1.08h-7.325v18.16h1.166v-9.4h5.999v-1.096h-5.999v-6.584H335.216L335.216,248.611z"/>
<path fill="#ED1C24" d="M126.75,113.959H96.57v111.46h68.372v-30.184H126.75V113.959z M181.299,225.336h30.19V113.834h-30.19
	V225.336z M279.463,193.064c-1.296,2.313-3.89,3.927-7.018,3.927c-0.326,0-0.67-0.022-0.993-0.073h-13.529v-17.865h14.831v0.146
	c2.473,0.056,4.887,1.311,6.111,3.125c1.119,1.902,1.817,3.642,1.817,5.848C280.682,189.861,280.278,191.69,279.463,193.064z
	 M257.924,140.701h13.302c0,0,3.314-0.201,4.982,2.165c1.414,1.59,2.275,3.709,2.275,6.015c0,2.335-0.876,4.471-2.286,6.044
	l-0.056,0.085c-1.683,2.38-4.915,2.125-4.915,2.125h-13.302V140.701L257.924,140.701z M306.302,176.521
	c-2.164-5.253-5.817-8.779-9.856-11.177c3.125-2.125,5.895-5.065,7.719-9.129l0.082-0.091c1.741-4.153,2.707-8.705,2.707-13.513
	c0-5.119-1.09-9.958-3.093-14.316l0.043,0.004c-6.661-15.318-28.571-14.524-28.571-14.524l-47.667,0.06v111.502h48.039
	c0,0,23.039,2.291,30.896-17.407l0.075-0.068c1.874-4.654,2.884-9.803,2.884-15.219c0-5.758-1.177-11.234-3.264-16.127
	L306.302,176.521z M398.133,141.303l-0.047-27.469h-70.392l-0.059,111.676l70.338-0.072l-0.051-27.719h-41.994V182.32h34.905
	l0.139-27.789l-35.015,0.075l0.011-13.303L398.133,141.303L398.133,141.303z M468.241,156.354c-1.287,2.298-3.892,3.928-7.013,3.928
	c-0.329,0-0.683-0.021-1.009-0.089h-14.06v-17.85h15.373v0.13c2.472,0.089,4.887,1.296,6.111,3.148
	c1.116,1.893,1.819,3.631,1.819,5.839C469.466,153.143,469.054,154.992,468.241,156.354z M496.861,218.461
	c-0.092-0.781-0.405-23.131-0.405-23.131c-0.203-17.312-12.197-22.426-12.197-22.426l-0.287-0.096
	c4.072-2.409,7.784-6.037,10.092-11.5l0.058-0.12c1.868-4.645,2.907-9.782,2.907-15.188c0-5.767-1.187-11.253-3.277-16.154
	l0.022,0.029c-7.121-17.274-30.416-16.168-30.416-16.168h-17.393h-30.186V225.07h30.186v-37.66h12.697c0,0,9.273-0.227,9.194,13.691
	l0.512,12.908v8.506c0,0-0.073,2.813,2.962,2.687l25.773-0.047c2.153-0.109,0.608-2.146,0.608-2.146
	C496.814,220.193,496.861,218.461,496.861,218.461z M512.574,144.147h24.281l-0.076,81.188h30.248v-81.188h25.447v-30.188h-79.9
	V144.147z M703.43,113.834h-33.877l-14.311,36.424l-13.248-36.424h-34.813l32.499,69.481l-0.021,42.021h30.244l-0.052-42.333
	L703.43,113.834z"/>
</svg>
